<?xml version="1.0" encoding="utf-8"?><svg version="1.1" id="Layer_1" xmlns="http://www.w3.org/2000/svg" xmlns:xlink="http://www.w3.org/1999/xlink" x="0px" y="0px" viewBox="0 0 112.65 122.88" style="enable-background:new 0 0 112.65 122.88" xml:space="preserve"><g><path d="M25.21,96.28L25.21,96.28v2.7c0,0.25,0.21,0.46,0.46,0.46h7.72c0.25,0,0.46-0.21,0.46-0.46v-7.79 c0-0.25-0.21-0.46-0.46-0.46h-7.72c-0.25,0-0.46,0.21-0.46,0.46V96.28L25.21,96.28z M12.65,109.48V30.19H8.52 c-0.48,0-0.87-0.39-0.87-0.87V2.23c0-0.61,0.25-1.17,0.66-1.57C8.71,0.25,9.27,0,9.88,0c11.3,0,29.03,0.02,46.72,0.04 c14.39,0.02,28.69,0.03,46.17,0.03c0.61,0,1.17,0.25,1.57,0.65l0,0l0,0l0,0c0.4,0.41,0.65,0.96,0.65,1.57v27.02 c0,0.48-0.39,0.87-0.87,0.87H100L100,109.48h12.66v13.4H0v-13.4H12.65L12.65,109.48z M15.34,109.48h81.96l0.01-79.2l-81.97-0.05 V109.48L15.34,109.48z M78.96,43.45h7.72c0.25,0,0.46,0.21,0.46,0.46v7.79c0,0.25-0.21,0.46-0.46,0.46h-7.72 c-0.25,0-0.46-0.21-0.46-0.46v-7.79C78.5,43.65,78.71,43.45,78.96,43.45L78.96,43.45z M65.47,43.45h7.72 c0.25,0,0.46,0.21,0.46,0.46v7.79c0,0.25-0.21,0.46-0.46,0.46h-7.72c-0.25,0-0.46-0.21-0.46-0.46v-7.79 C65.01,43.65,65.22,43.45,65.47,43.45L65.47,43.45z M78.96,90.73h7.72c0.25,0,0.46,0.21,0.46,0.46v7.79c0,0.25-0.21,0.46-0.46,0.46 h-7.72c-0.25,0-0.46-0.21-0.46-0.46v-7.79C78.5,90.94,78.71,90.73,78.96,90.73L78.96,90.73z M65.47,90.73h7.72 c0.25,0,0.46,0.21,0.46,0.46v7.79c0,0.25-0.21,0.46-0.46,0.46h-7.72c-0.25,0-0.46-0.21-0.46-0.46v-7.79 C65.01,90.94,65.22,90.73,65.47,90.73L65.47,90.73z M78.96,74.97h7.72c0.25,0,0.46,0.21,0.46,0.46v7.79c0,0.25-0.21,0.46-0.46,0.46 h-7.72c-0.25,0-0.46-0.21-0.46-0.46v-7.79C78.5,75.18,78.71,74.97,78.96,74.97L78.96,74.97z M65.47,74.97h7.72 c0.25,0,0.46,0.21,0.46,0.46v7.79c0,0.25-0.21,0.46-0.46,0.46h-7.72c-0.25,0-0.46-0.21-0.46-0.46v-7.79 C65.01,75.18,65.22,74.97,65.47,74.97L65.47,74.97z M78.96,59.21h7.72c0.25,0,0.46,0.21,0.46,0.46v7.79c0,0.25-0.21,0.46-0.46,0.46 h-7.72c-0.25,0-0.46-0.21-0.46-0.46v-7.79C78.5,59.42,78.71,59.21,78.96,59.21L78.96,59.21z M65.47,59.21h7.72 c0.25,0,0.46,0.21,0.46,0.46v7.79c0,0.25-0.21,0.46-0.46,0.46h-7.72c-0.25,0-0.46-0.21-0.46-0.46v-7.79 C65.01,59.42,65.22,59.21,65.47,59.21L65.47,59.21z M39.47,43.45h7.72c0.25,0,0.46,0.21,0.46,0.46v7.79c0,0.25-0.21,0.46-0.46,0.46 h-7.72c-0.25,0-0.46-0.21-0.46-0.46v-7.79C39.01,43.65,39.22,43.45,39.47,43.45L39.47,43.45z M25.98,43.45h7.72 c0.25,0,0.46,0.21,0.46,0.46v7.79c0,0.25-0.21,0.46-0.46,0.46h-7.72c-0.25,0-0.46-0.21-0.46-0.46v-7.79 C25.52,43.65,25.72,43.45,25.98,43.45L25.98,43.45z M39.16,90.73h7.72c0.25,0,0.46,0.21,0.46,0.46v7.79c0,0.25-0.21,0.46-0.46,0.46 h-7.72c-0.25,0-0.46-0.21-0.46-0.46v-7.79C38.7,90.94,38.91,90.73,39.16,90.73L39.16,90.73z M39.16,74.97h7.72 c0.25,0,0.46,0.21,0.46,0.46v7.79c0,0.25-0.21,0.46-0.46,0.46h-7.72c-0.25,0-0.46-0.21-0.46-0.46v-7.79 C38.7,75.18,38.91,74.97,39.16,74.97L39.16,74.97z M25.66,74.97h7.72c0.25,0,0.46,0.21,0.46,0.46v7.79c0,0.25-0.21,0.46-0.46,0.46 h-7.72c-0.25,0-0.46-0.21-0.46-0.46v-7.79C25.21,75.18,25.41,74.97,25.66,74.97L25.66,74.97z M39.16,59.21h7.72 c0.25,0,0.46,0.21,0.46,0.46v7.79c0,0.25-0.21,0.46-0.46,0.46h-7.72c-0.25,0-0.46-0.21-0.46-0.46v-7.79 C38.7,59.42,38.91,59.21,39.16,59.21L39.16,59.21z M25.66,59.21h7.72c0.25,0,0.46,0.21,0.46,0.46v7.79c0,0.25-0.21,0.46-0.46,0.46 h-7.72c-0.25,0-0.46-0.21-0.46-0.46v-7.79C25.21,59.42,25.41,59.21,25.66,59.21L25.66,59.21z M19.91,7.89h4.32v5.03h4.73V7.89h4.34 V22.3h-4.34v-5.84h-4.73v5.84h-4.32V7.89L19.91,7.89z M35.99,15.1c0-2.35,0.64-4.18,1.91-5.49c1.27-1.31,3.05-1.97,5.32-1.97 c2.33,0,4.13,0.64,5.39,1.93c1.26,1.29,1.89,3.09,1.89,5.41c0,1.68-0.27,3.06-0.82,4.14c-0.55,1.08-1.35,1.92-2.39,2.52 c-1.04,0.6-2.34,0.9-3.89,0.9c-1.58,0-2.88-0.26-3.92-0.78c-1.03-0.52-1.87-1.34-2.52-2.46C36.32,18.19,35.99,16.79,35.99,15.1 L35.99,15.1z M40.32,15.11c0,1.45,0.26,2.5,0.79,3.13c0.53,0.63,1.24,0.95,2.15,0.95c0.93,0,1.65-0.31,2.16-0.93 c0.51-0.62,0.77-1.74,0.77-3.35c0-1.36-0.27-2.35-0.8-2.97c-0.53-0.63-1.25-0.94-2.17-0.94c-0.87,0-1.58,0.32-2.11,0.95 C40.58,12.59,40.32,13.65,40.32,15.11L40.32,15.11z M51.71,7.89h13.16v3.56h-4.42V22.3h-4.32V11.45h-4.42V7.89L51.71,7.89z M67.17,7.89h11.58v3.08h-7.23v2.3h6.71v2.94h-6.71v2.84h7.45v3.26H67.17V7.89L67.17,7.89z M81.65,7.89h4.32v10.87h6.77v3.54H81.65 V7.89L81.65,7.89z M10.34,3.19v24.3h91.96V3.26c0-0.14-0.05-0.26-0.14-0.35l0,0c-0.09-0.09-0.21-0.14-0.35-0.14 c-10.95,0-27.61-0.02-45.21-0.04C42.1,2.71,28.5,2.7,10.84,2.7c-0.14,0-0.26,0.06-0.35,0.15C10.4,2.93,10.34,3.05,10.34,3.19 L10.34,3.19z M60.27,35h31.6c0.54,0,1.02,0.25,1.36,0.66c0.3,0.36,0.49,0.85,0.49,1.38v67.8c0,0.53-0.19,1.02-0.49,1.38 c-0.02,0.02-0.04,0.05-0.06,0.07c-0.33,0.36-0.79,0.59-1.29,0.59h-31.6c-0.54,0-1.01-0.25-1.35-0.66c-0.31-0.36-0.5-0.85-0.5-1.38 v-67.8c0-0.53,0.19-1.02,0.49-1.38C59.25,35.25,59.73,35,60.27,35L60.27,35z M90.91,37.69H61.23c0,0-0.01,0.01-0.03,0.03 c-0.05,0.06-0.08,0.16-0.08,0.27v65.88c0,0.11,0.03,0.21,0.08,0.27c0.02,0.02,0.03,0.03,0.03,0.03h29.68c0,0,0,0,0.01,0l0.98-0.03 c0.05-0.06-0.88-0.16-0.88-0.27V37.99c0-0.11,0.93-0.21,0.88-0.27C91.88,37.7,90.91,37.69,90.91,37.69L90.91,37.69z M20.63,34.93 h31.59c0.54,0,1.02,0.25,1.36,0.65c0.3,0.36,0.49,0.85,0.49,1.38v67.87c0,0.53-0.19,1.02-0.49,1.38c-0.34,0.4-0.82,0.65-1.36,0.65 H20.63c-0.53,0-1.01-0.25-1.35-0.66c-0.31-0.36-0.5-0.85-0.5-1.38V36.96c0-0.53,0.19-1.02,0.5-1.38 C19.62,35.18,20.1,34.93,20.63,34.93L20.63,34.93z M51.27,37.62H21.59c0,0-0.02,0.01-0.03,0.03c-0.05,0.06-0.08,0.15-0.08,0.27 v65.95c0,0.11,0.03,0.21,0.08,0.27c0.02,0.02,0.03,0.03,0.03,0.03h29.67c0,0,0.01-0.01,0.03-0.03c0.05-0.06,0.08-0.16,0.08-0.27 V37.92c0-0.11-0.03-0.21-0.08-0.27C51.28,37.63,51.27,37.62,51.27,37.62L51.27,37.62z"/></g></svg>