<?xml version="1.0" encoding="utf-8"?><svg version="1.1" id="Layer_1" xmlns="http://www.w3.org/2000/svg" xmlns:xlink="http://www.w3.org/1999/xlink" x="0px" y="0px" viewBox="0 0 122.88 96.18" style="enable-background:new 0 0 122.88 96.18" xml:space="preserve"><g><path d="M64.45,15.57C77.83,16.33,89.9,21.7,98.83,30c9.72,9.03,15.73,21.51,15.73,35.31c0,0.11-0.01,0.23-0.02,0.34 c-0.03,1.8-1.49,3.24-3.29,3.24v0.01H11.05c-1.82,0-3.3-1.48-3.3-3.3l0.01-0.29H7.74c0-13.8,6.01-26.29,15.73-35.31 c8.93-8.29,20.99-13.66,34.37-14.42V6.61H50.7c-1.82,0-3.3-1.48-3.3-3.3c0-1.82,1.48-3.3,3.3-3.3h10.45h10.83 c1.82,0,3.3,1.48,3.3,3.3c0,1.82-1.48,3.3-3.3,3.3h-7.53V15.57L64.45,15.57z M3.3,72.94h116.27c1.82,0,3.3,1.48,3.3,3.3v16.64 c0,1.82-1.48,3.3-3.3,3.3H3.3c-1.82,0-3.3-1.48-3.3-3.3V76.24C0,74.42,1.48,72.94,3.3,72.94L3.3,72.94z M116.27,79.54H6.61v10.03 h109.67V79.54L116.27,79.54z M94.34,34.82c-8.48-7.87-20.21-12.74-33.19-12.74c-12.98,0-24.71,4.87-33.19,12.74 c-7.7,7.15-12.71,16.78-13.51,27.47h93.38C107.04,51.6,102.03,41.97,94.34,34.82L94.34,34.82z"/></g></svg>